<?xml version="1.0" standalone="no"?>
<!DOCTYPE svg PUBLIC "-//W3C//DTD SVG 20010904//EN"
 "http://www.w3.org/TR/2001/REC-SVG-20010904/DTD/svg10.dtd">
<svg version="1.0" xmlns="http://www.w3.org/2000/svg"
 width="280.000000pt" height="280.000000pt" viewBox="0 0 280.000000 280.000000"
 preserveAspectRatio="xMidYMid meet">
<metadata>
Created by potrace 1.14, written by Peter Selinger 2001-2017
</metadata>
<g transform="translate(0.000000,280.000000) scale(0.100000,-0.100000)"
fill="#000000" stroke="none">
<path d="M0 1400 l0 -1400 1400 0 1400 0 0 1400 0 1400 -1400 0 -1400 0 0
-1400z m1665 1018 c-15 -73 -29 -144 -32 -157 -6 -22 -1 -20 53 22 73 57 147
90 273 122 159 41 159 38 -5 -92 l-147 -118 34 -7 c19 -4 66 -10 104 -14 39
-3 76 -10 83 -14 9 -5 -15 -25 -73 -62 l-87 -55 99 -6 c54 -4 148 -7 208 -7
61 0 115 -4 122 -8 8 -5 -6 -16 -38 -32 -60 -28 -139 -96 -170 -146 -12 -19
-20 -36 -18 -38 2 -2 35 -11 73 -20 67 -17 142 -50 181 -80 20 -16 20 -16 -3
-22 -12 -4 -53 -21 -89 -38 l-67 -32 84 -51 c81 -49 226 -161 218 -168 -2 -2
-21 0 -43 5 -43 10 -155 13 -155 5 0 -3 24 -34 54 -70 30 -35 59 -73 65 -84
10 -18 9 -19 -21 -10 -18 5 -55 9 -81 9 -38 0 -56 6 -85 30 -39 31 -118 64
-126 52 -2 -4 -7 -23 -11 -43 -6 -34 -5 -37 25 -47 57 -20 90 -51 90 -83 0
-100 -122 -239 -225 -255 l-40 -6 0 -146 0 -147 -38 -80 c-123 -258 -239 -375
-417 -421 -107 -27 -249 9 -353 91 -72 57 -259 281 -297 356 -34 67 -67 186
-76 275 l-7 64 -54 0 c-125 0 -191 40 -217 133 -21 74 -28 149 -17 167 12 17
89 20 157 7 39 -8 42 -7 48 16 3 14 8 32 12 40 9 23 -6 26 -331 70 l-89 13 61
26 c33 15 105 36 159 48 54 11 100 22 101 24 2 2 -47 25 -109 51 -62 26 -114
49 -116 50 -2 1 33 15 78 31 44 15 79 31 78 35 -5 11 -111 99 -120 99 -4 0 -8
4 -8 9 0 5 34 17 75 27 41 10 75 21 75 25 0 14 -63 81 -115 122 l-50 40 107
-6 c60 -4 108 -4 108 -1 0 17 -110 141 -168 191 l-67 56 50 -7 c78 -11 225
-52 289 -80 32 -14 60 -26 61 -26 7 0 -39 138 -56 173 -12 23 -15 37 -8 37 6
0 45 -20 86 -45 42 -26 77 -44 80 -42 8 9 -26 144 -50 199 -14 32 -40 79 -58
104 -26 38 -29 46 -13 40 55 -21 137 -80 213 -154 46 -45 85 -81 87 -80 1 2 9
35 17 73 l14 70 77 -77 76 -77 0 97 c0 132 9 141 50 48 l33 -75 29 17 c17 9
50 38 74 64 l44 47 1 -97 0 -97 42 50 c60 71 220 236 225 231 2 -2 -8 -64 -23
-138z"/>
<path d="M1513 2163 c-29 -6 -37 -33 -23 -82 17 -65 36 -78 177 -127 135 -46
162 -49 143 -14 -21 40 -152 196 -178 212 -25 17 -69 21 -119 11z"/>
<path d="M1061 2147 c-22 -11 -181 -229 -181 -249 0 -16 34 -7 157 44 135 57
151 70 164 141 11 62 -1 77 -64 77 -29 0 -63 -6 -76 -13z"/>
<path d="M1058 1871 c-73 -24 -116 -51 -165 -104 -200 -218 -157 -561 78 -617
98 -24 216 19 313 114 32 31 59 56 60 56 2 0 17 -22 35 -49 32 -51 105 -111
157 -132 16 -6 61 -14 99 -17 60 -6 70 -10 73 -27 2 -16 -16 -29 -93 -68 -172
-86 -287 -86 -531 2 l-109 39 0 33 c0 21 -5 34 -12 33 -7 -1 -26 -2 -43 -2
-22 -2 -30 -7 -30 -20 0 -10 -16 -45 -35 -77 l-36 -58 28 -29 27 -28 22 20 21
21 41 -78 c22 -43 63 -136 92 -208 66 -165 108 -241 163 -292 54 -50 104 -67
170 -60 182 22 291 178 393 565 21 79 30 102 41 97 45 -17 61 -16 66 2 3 10 8
28 12 40 5 19 0 25 -32 38 -21 9 -49 28 -63 42 l-26 27 57 28 c92 46 130 111
143 243 18 176 -80 392 -207 456 -101 52 -251 21 -354 -74 l-22 -20 -46 41
c-89 79 -180 99 -287 63z m171 -86 c16 -8 49 -37 74 -65 60 -66 86 -67 164 -4
106 86 190 105 268 61 105 -59 176 -261 145 -412 -10 -48 -20 -67 -50 -96 -63
-60 -194 -78 -277 -38 -52 25 -115 95 -140 154 -10 26 -26 46 -38 49 -44 12
-63 6 -84 -26 -11 -18 -41 -54 -68 -80 -136 -131 -275 -129 -345 6 -17 32 -22
58 -22 116 1 189 138 348 302 350 24 0 56 -7 71 -15z m456 -895 c-10 -39 -23
-77 -30 -84 -7 -7 -64 -25 -126 -41 -94 -23 -135 -28 -234 -28 -168 0 -179 4
-200 61 -10 26 -29 69 -42 95 -13 27 -22 51 -20 53 2 2 45 -9 95 -25 209 -69
367 -60 532 28 19 11 37 18 39 16 2 -2 -4 -36 -14 -75z m-125 -341 c0 -3 -19
-28 -42 -54 -71 -80 -159 -106 -226 -65 -29 18 -92 101 -92 121 0 5 81 7 180
6 99 -1 180 -5 180 -8z"/>
<path d="M1601 1601 c-28 -28 -34 -61 -22 -109 12 -42 51 -82 81 -82 23 0 49
30 56 67 17 85 -65 174 -115 124z"/>
<path d="M1100 1597 c-55 -27 -75 -123 -34 -168 31 -34 86 -23 109 22 24 45
19 106 -10 134 -28 29 -31 29 -65 12z"/>
</g>
</svg>
